<?xml version="1.0" standalone="no"?><!DOCTYPE svg PUBLIC "-//W3C//DTD SVG 1.1//EN" "http://www.w3.org/Graphics/SVG/1.1/DTD/svg11.dtd"><svg t="1615095182169" class="icon" viewBox="0 0 1024 1024" version="1.1" xmlns="http://www.w3.org/2000/svg" p-id="1665" width="512" height="512" xmlns:xlink="http://www.w3.org/1999/xlink"><defs><style type="text/css"></style></defs><path d="M853.333333 213.333333h-389.12L426.666667 85.333333H170.666667a85.333333 85.333333 0 0 0-85.333334 85.333334v554.666666a85.333333 85.333333 0 0 0 85.333334 85.333334h298.666666l42.666667 128h341.333333a85.333333 85.333333 0 0 0 85.333334-85.333334V298.666667a85.333333 85.333333 0 0 0-85.333334-85.333334M305.92 622.506667a174.506667 174.506667 0 0 1-174.506667-174.506667 174.506667 174.506667 0 0 1 174.506667-174.506667c44.373333 0 84.906667 15.786667 116.906667 46.506667l3.84 1.706667-53.333334 50.346666-2.56-2.133333c-12.373333-11.52-33.28-25.173333-64.853333-25.173333-55.893333 0-101.546667 46.506667-101.546667 103.253333 0 56.746667 45.653333 103.253333 101.546667 103.253333 58.453333 0 83.626667-37.12 90.453333-62.293333H302.08V422.826667h168.533333l0.426667 3.84c1.706667 8.106667 2.133333 16.213333 2.133333 25.173333 0 100.266667-67.84 170.666667-167.253333 170.666667m257.28-72.96c14.08 26.453333 31.573333 50.346667 50.773333 72.533333l-23.04 22.613333-27.733333-95.146666m32.853333-32.426667H554.666667l-14.08-44.373333h170.24s-14.506667 55.893333-66.56 116.906666c-22.186667-26.453333-37.973333-52.48-48.213334-72.533333M896 853.333333a42.666667 42.666667 0 0 1-42.666667 42.666667h-298.666666l85.333333-85.333333-34.56-118.186667 39.253333-39.253333L759.04 768l30.293333-31.146667-114.773333-114.346666c38.4-43.946667 68.266667-96 81.92-149.76H810.666667v-44.373334h-155.306667V384h-44.373333v44.373333h-83.626667L477.013333 256H853.333333a42.666667 42.666667 0 0 1 42.666667 42.666667v554.666666z" p-id="1666" fill="#71fc01"></path></svg>