<?xml version="1.0" standalone="no"?><!DOCTYPE svg PUBLIC "-//W3C//DTD SVG 1.1//EN" "http://www.w3.org/Graphics/SVG/1.1/DTD/svg11.dtd"><svg t="1615095329598" class="icon" viewBox="0 0 1024 1024" version="1.1" xmlns="http://www.w3.org/2000/svg" p-id="3228" width="512" height="512" xmlns:xlink="http://www.w3.org/1999/xlink"><defs><style type="text/css"></style></defs><path d="M723.4 731.04h134.2v103.96h-134.2z" fill="#FF6B6B" p-id="3229"></path><path d="M811.02 448.12a96 96 0 0 1 96 96V787a48 48 0 0 1-48 48 48 48 0 0 1-48-48V448.12z" fill="#FA5252" p-id="3230"></path><path d="M635.28 211H357.8a54.74 54.74 0 0 0-54.8 54.68v458.64a54.74 54.74 0 0 0 54.8 54.68h338.4a54.74 54.74 0 0 0 54.8-54.68V326.46z" fill="#4DADF7" p-id="3231"></path><path d="M751 326.46h-88.22a27.38 27.38 0 0 1-27.4-27.34V211z" fill="#329AF0" p-id="3232"></path><path d="M745.08 115H452.74a57.76 57.76 0 0 0-57.74 57.76v484.48a57.76 57.76 0 0 0 57.74 57.76h356.52a57.76 57.76 0 0 0 57.74-57.76V236.96z" fill="#FFD43B" p-id="3233"></path><path d="M867 236.96H774A28.88 28.88 0 0 1 745.18 208V115z" fill="#FCC419" p-id="3234"></path><path d="M500.22 537.26m22.14 0l217.3 0q22.14 0 22.14 22.14l0 0q0 22.14-22.14 22.14l-217.3 0q-22.14 0-22.14-22.14l0 0q0-22.14 22.14-22.14Z" fill="#F7BE1C" p-id="3235"></path><path d="M500.22 421.74m22.14 0l217.3 0q22.14 0 22.14 22.14l0 0q0 22.14-22.14 22.14l-217.3 0q-22.14 0-22.14-22.14l0 0q0-22.14 22.14-22.14Z" fill="#F7BE1C" p-id="3236"></path><path d="M500.22 306.2m22.14 0l123.88 0q22.14 0 22.14 22.14l0 0q0 22.14-22.14 22.14l-123.88 0q-22.14 0-22.14-22.14l0 0q0-22.14 22.14-22.14Z" fill="#F7BE1C" p-id="3237"></path><path d="M614.34 395.56a52.52 52.52 0 0 0-52.5-52.56h-282a76.84 76.84 0 0 0-76.78 76.88v338.24a76.84 76.84 0 0 0 76.78 76.88h531.18V548.48a100.3 100.3 0 0 0-100.24-100.36h-44a52.52 52.52 0 0 1-52.44-52.56z" fill="#FF6B6B" p-id="3238"></path><path d="M569 733.16v-48.32a13.5 13.5 0 0 0-12.88-13.48l-41.36-1.88a13.5 13.5 0 0 1-12.3-9.58 167.68 167.68 0 0 0-12.56-30.34 13.5 13.5 0 0 1 2-15.48l28-30.58a13.5 13.5 0 0 0-0.42-18.64l-34.16-34.16a13.5 13.5 0 0 0-18.64-0.42l-30.58 28a13.5 13.5 0 0 1-15.48 2 167.68 167.68 0 0 0-30.62-12.74 13.5 13.5 0 0 1-9.58-12.3l-1.88-41.36a13.5 13.5 0 0 0-13.48-12.88h-48.22a13.5 13.5 0 0 0-13.48 12.88l-1.88 41.36a13.5 13.5 0 0 1-9.58 12.3 167.68 167.68 0 0 0-30.34 12.56 13.5 13.5 0 0 1-15.48-2l-30.58-28a13.5 13.5 0 0 0-18.64 0.42l-34.16 34.34a13.5 13.5 0 0 0-0.42 18.64l28 30.58a13.5 13.5 0 0 1 2 15.48A167.68 167.68 0 0 0 179.54 660a13.5 13.5 0 0 1-12.3 9.58l-41.36 1.88a13.5 13.5 0 0 0-12.88 13.48v48.32a13.5 13.5 0 0 0 12.88 13.48l41.36 1.88a13.5 13.5 0 0 1 12.3 9.38 167.68 167.68 0 0 0 12.56 30.34 13.5 13.5 0 0 1-2 15.48l-28 30.58a13.5 13.5 0 0 0 0.42 18.64l34.16 34.16a13.5 13.5 0 0 0 18.64 0.42l30.58-28a13.5 13.5 0 0 1 15.48-2 167.68 167.68 0 0 0 30.62 12.84 13.5 13.5 0 0 1 9.58 12.3l1.88 41.36a13.5 13.5 0 0 0 13.48 12.88h48.32a13.5 13.5 0 0 0 13.48-12.88l1.88-41.36a13.5 13.5 0 0 1 9.58-12.3 167.68 167.68 0 0 0 30.34-12.56 13.5 13.5 0 0 1 15.48 2l30.58 28a13.5 13.5 0 0 0 18.64-0.42l34.16-34.16a13.5 13.5 0 0 0 0.42-18.64l-28-30.58a13.5 13.5 0 0 1-2-15.48 167.68 167.68 0 0 0 12.64-30.62 13.5 13.5 0 0 1 12.3-9.58l41.36-1.88a13.5 13.5 0 0 0 12.88-13.38z" fill="#495057" p-id="3239"></path><path d="M341 709m-121.48 0a121.48 121.48 0 1 0 242.96 0 121.48 121.48 0 1 0-242.96 0Z" fill="#ADB5BD" p-id="3240"></path><path d="M341 709m-81 0a81 81 0 1 0 162 0 81 81 0 1 0-162 0Z" fill="#495057" p-id="3241"></path><path d="M341 709m-40.5 0a40.5 40.5 0 1 0 81 0 40.5 40.5 0 1 0-81 0Z" fill="#DEE2E6" p-id="3242"></path></svg>