<svg id="svg" version="1.1" xmlns="http://www.w3.org/2000/svg" xmlns:xlink="http://www.w3.org/1999/xlink" width="400" height="400" viewBox="0, 0, 400,400"><g id="svgg"><path id="path0" d="M73.400 100.000 C 73.264 100.220,72.724 100.400,72.200 100.400 C 71.676 100.400,71.136 100.580,71.000 100.800 C 70.864 101.020,70.403 101.200,69.976 101.200 C 69.549 101.200,69.200 101.358,69.200 101.550 C 69.200 101.743,68.676 102.005,68.035 102.133 C 67.395 102.261,66.413 102.824,65.853 103.383 C 65.294 103.942,64.644 104.400,64.408 104.400 C 63.858 104.400,57.600 110.637,57.600 111.186 C 57.600 111.414,57.420 111.600,57.200 111.600 C 56.980 111.600,56.800 111.830,56.800 112.112 C 56.800 112.393,56.440 112.883,56.000 113.200 C 55.560 113.517,55.200 114.057,55.200 114.400 C 55.200 114.743,54.840 115.283,54.400 115.600 C 53.960 115.917,53.600 116.486,53.600 116.865 C 53.600 117.243,53.420 117.664,53.200 117.800 C 52.980 117.936,52.800 118.487,52.800 119.024 C 52.800 119.561,52.620 120.000,52.400 120.000 C 52.180 120.000,52.000 120.360,52.000 120.800 C 52.000 121.240,51.840 121.600,51.644 121.600 C 51.448 121.600,51.186 122.185,51.063 122.900 C 50.542 125.912,50.290 126.800,49.955 126.800 C 49.458 126.800,49.486 293.894,49.982 294.067 C 50.193 294.140,50.410 294.875,50.464 295.700 C 50.519 296.525,50.707 297.200,50.882 297.200 C 51.057 297.200,51.200 297.740,51.200 298.400 C 51.200 299.060,51.380 299.600,51.600 299.600 C 51.820 299.600,52.000 299.960,52.000 300.400 C 52.000 300.840,52.180 301.200,52.400 301.200 C 52.620 301.200,52.800 301.560,52.800 302.000 C 52.800 302.440,52.980 302.800,53.200 302.800 C 53.420 302.800,53.600 303.160,53.600 303.600 C 53.600 304.040,53.780 304.400,54.000 304.400 C 54.220 304.400,54.400 304.643,54.400 304.941 C 54.400 305.238,54.940 306.046,55.600 306.737 C 56.260 307.428,56.800 308.098,56.800 308.228 C 56.800 308.357,57.513 309.169,58.384 310.031 C 59.256 310.894,59.858 311.600,59.722 311.600 C 59.587 311.600,59.999 312.050,60.638 312.600 C 61.277 313.149,61.946 313.599,62.124 313.600 C 62.302 313.600,62.336 313.780,62.200 314.000 C 62.064 314.220,62.236 314.400,62.582 314.400 C 63.312 314.400,64.618 315.100,65.755 316.100 C 66.193 316.485,66.866 316.800,67.252 316.800 C 67.637 316.800,68.064 316.980,68.200 317.200 C 68.336 317.420,68.797 317.600,69.224 317.600 C 69.651 317.600,70.000 317.741,70.000 317.913 C 70.000 318.085,70.487 318.266,71.082 318.315 C 71.678 318.364,72.344 318.584,72.562 318.802 C 72.821 319.061,89.521 319.200,120.486 319.200 L 168.013 319.200 171.048 322.158 C 172.717 323.786,174.243 325.271,174.439 325.458 C 174.634 325.646,178.294 329.310,182.573 333.600 C 186.851 337.890,190.548 341.580,190.788 341.800 C 191.028 342.020,192.463 343.505,193.977 345.100 C 195.490 346.695,197.045 348.000,197.431 348.000 C 197.817 348.000,198.016 348.117,197.873 348.261 C 197.536 348.597,199.463 349.600,200.446 349.600 C 200.861 349.600,201.200 349.780,201.200 350.000 C 201.200 350.243,203.000 350.400,205.800 350.400 C 208.600 350.400,210.400 350.243,210.400 350.000 C 210.400 349.780,210.940 349.600,211.600 349.600 C 212.260 349.600,212.800 349.420,212.800 349.200 C 212.800 348.980,213.055 348.800,213.367 348.800 C 213.679 348.800,215.669 347.090,217.790 345.000 C 219.910 342.910,221.803 341.200,221.996 341.200 C 222.188 341.200,222.460 340.840,222.600 340.400 C 222.740 339.960,223.072 339.600,223.339 339.600 C 223.605 339.600,224.088 339.211,224.412 338.736 C 224.897 338.022,230.628 332.237,239.800 323.201 C 240.680 322.334,241.850 321.085,242.400 320.424 L 243.400 319.224 258.500 319.212 C 268.292 319.204,273.600 319.059,273.600 318.800 C 273.600 318.580,274.140 318.400,274.800 318.400 C 275.460 318.400,276.000 318.257,276.000 318.082 C 276.000 317.907,276.675 317.719,277.500 317.664 C 278.325 317.610,279.060 317.393,279.133 317.182 C 279.207 316.972,279.612 316.800,280.033 316.800 C 280.455 316.800,280.800 316.620,280.800 316.400 C 280.800 316.180,281.145 316.000,281.567 316.000 C 281.988 316.000,282.393 315.865,282.467 315.700 C 282.540 315.535,283.410 314.963,284.400 314.428 C 285.390 313.894,286.491 313.129,286.847 312.728 C 287.203 312.328,287.702 312.000,287.956 312.000 C 288.531 312.000,294.800 305.593,294.800 305.006 C 294.800 304.770,295.160 304.317,295.600 304.000 C 296.040 303.683,296.400 303.143,296.400 302.800 C 296.400 302.457,296.760 301.917,297.200 301.600 C 297.670 301.261,298.000 300.565,298.000 299.912 C 298.000 299.300,298.180 298.800,298.400 298.800 C 298.620 298.800,298.800 298.451,298.800 298.024 C 298.800 297.597,298.980 297.136,299.200 297.000 C 299.420 296.864,299.600 296.223,299.600 295.576 C 299.600 294.929,299.780 294.400,300.000 294.400 C 300.265 294.400,300.400 266.400,300.400 211.200 C 300.400 156.000,300.265 128.000,300.000 128.000 C 299.780 128.000,299.600 127.460,299.600 126.800 C 299.600 126.140,299.420 125.600,299.200 125.600 C 298.980 125.600,298.800 125.060,298.800 124.400 C 298.800 123.740,298.620 123.200,298.400 123.200 C 298.180 123.200,298.000 122.750,298.000 122.200 C 298.000 121.650,297.820 121.200,297.600 121.200 C 297.380 121.200,297.200 120.930,297.200 120.600 C 297.200 120.270,297.020 120.000,296.800 120.000 C 296.580 120.000,296.400 119.640,296.400 119.200 C 296.400 118.760,296.262 118.400,296.094 118.400 C 295.926 118.400,295.496 117.725,295.138 116.900 C 294.493 115.414,291.850 112.246,289.252 109.846 C 288.510 109.161,287.120 107.835,286.162 106.900 C 285.205 105.965,284.229 105.200,283.994 105.200 C 283.759 105.200,283.180 104.840,282.708 104.400 C 282.236 103.960,281.613 103.600,281.325 103.600 C 281.036 103.600,280.800 103.420,280.800 103.200 C 280.800 102.980,280.440 102.800,280.000 102.800 C 279.560 102.800,279.200 102.620,279.200 102.400 C 279.200 102.180,278.851 102.000,278.424 102.000 C 277.997 102.000,277.536 101.820,277.400 101.600 C 277.264 101.380,276.713 101.200,276.176 101.200 C 275.639 101.200,275.200 101.020,275.200 100.800 C 275.200 100.580,274.660 100.400,274.000 100.400 C 273.340 100.400,272.800 100.220,272.800 100.000 C 272.800 99.734,239.341 99.600,173.224 99.600 C 107.271 99.600,73.564 99.735,73.400 100.000 M258.504 132.936 C 259.331 133.224,259.886 133.581,259.737 133.730 C 259.588 133.878,259.957 134.000,260.557 134.000 C 261.182 134.000,261.542 134.171,261.400 134.400 C 261.264 134.620,261.433 134.800,261.776 134.800 C 262.119 134.800,262.400 134.980,262.400 135.200 C 262.400 135.420,262.593 135.600,262.829 135.600 C 263.428 135.600,264.400 136.636,264.400 137.275 C 264.400 137.568,264.760 138.032,265.200 138.307 C 265.640 138.582,266.000 139.165,266.000 139.603 C 266.000 140.042,266.180 140.400,266.400 140.400 C 266.620 140.400,266.800 140.749,266.800 141.176 C 266.800 141.603,266.980 142.064,267.200 142.200 C 267.420 142.336,267.600 143.236,267.600 144.200 C 267.600 145.164,267.780 146.064,268.000 146.200 C 268.264 146.363,268.398 167.898,268.394 209.524 C 268.390 250.394,268.251 272.389,268.000 272.000 C 267.725 271.574,267.610 272.059,267.606 273.676 C 267.603 274.928,267.420 276.064,267.200 276.200 C 266.980 276.336,266.800 276.799,266.800 277.229 C 266.800 278.160,266.069 279.541,265.100 280.443 C 264.715 280.801,264.400 281.308,264.400 281.571 C 264.400 281.833,264.265 281.965,264.100 281.866 C 263.935 281.766,263.568 281.935,263.284 282.242 C 263.001 282.549,262.879 282.800,263.015 282.800 C 263.150 282.800,262.727 283.250,262.073 283.800 C 261.419 284.350,260.585 284.800,260.219 284.800 C 259.852 284.800,259.664 284.980,259.800 285.200 C 259.936 285.420,259.677 285.600,259.224 285.600 C 258.771 285.600,258.400 285.780,258.400 286.000 C 258.400 286.220,257.511 286.400,256.424 286.400 C 255.337 286.400,254.336 286.580,254.200 286.800 C 254.045 287.050,249.991 287.200,243.361 287.200 L 232.769 287.200 227.285 292.732 C 224.268 295.775,221.548 298.739,221.240 299.318 C 220.932 299.898,220.527 300.278,220.340 300.163 C 220.153 300.047,220.000 300.160,220.000 300.413 C 220.000 300.945,208.791 312.000,208.252 312.000 C 208.055 312.000,207.569 312.375,207.172 312.832 C 206.191 313.964,201.883 314.024,200.865 312.921 C 200.499 312.524,199.943 312.144,199.629 312.076 C 199.315 312.008,198.269 311.198,197.303 310.276 C 196.338 309.354,194.936 308.015,194.187 307.300 C 193.439 306.585,192.551 306.000,192.213 306.000 C 191.876 306.000,191.597 305.865,191.594 305.700 C 191.591 305.535,190.872 304.605,189.995 303.633 C 189.118 302.661,188.475 301.792,188.564 301.702 C 188.654 301.613,186.944 299.777,184.764 297.622 C 182.584 295.468,180.800 293.606,180.800 293.484 C 180.800 293.362,179.458 291.898,177.818 290.231 L 174.835 287.200 135.618 287.200 C 109.739 287.200,96.400 287.064,96.400 286.800 C 96.400 286.578,95.333 286.400,94.000 286.400 C 92.667 286.400,91.600 286.222,91.600 286.000 C 91.600 285.780,91.229 285.600,90.776 285.600 C 90.323 285.600,90.064 285.420,90.200 285.200 C 90.336 284.980,90.157 284.800,89.802 284.800 C 89.086 284.800,86.400 282.795,86.400 282.260 C 86.400 282.074,85.905 281.439,85.300 280.850 C 83.937 279.523,83.200 278.251,83.200 277.229 C 83.200 276.799,83.020 276.336,82.800 276.200 C 82.580 276.064,82.400 275.164,82.400 274.200 C 82.400 273.236,82.220 272.336,82.000 272.200 C 81.446 271.858,81.446 146.400,82.000 146.400 C 82.220 146.400,82.400 145.500,82.400 144.400 C 82.400 143.300,82.580 142.400,82.800 142.400 C 83.020 142.400,83.200 141.950,83.200 141.400 C 83.200 140.850,83.380 140.400,83.600 140.400 C 83.820 140.400,84.000 140.042,84.000 139.603 C 84.000 139.165,84.360 138.582,84.800 138.307 C 85.240 138.032,85.600 137.568,85.600 137.275 C 85.600 136.618,86.262 135.974,87.700 135.232 C 88.305 134.920,88.800 134.515,88.800 134.332 C 88.800 134.150,89.160 134.000,89.600 134.000 C 90.040 134.000,90.400 133.820,90.400 133.600 C 90.400 133.380,90.850 133.200,91.400 133.200 C 91.950 133.200,92.400 133.020,92.400 132.800 C 92.400 132.136,256.593 132.270,258.504 132.936 " stroke="none" fill="#ccd4dc" fill-rule="evenodd"></path><path id="path1" d="M128.000 50.000 C 128.000 50.220,127.460 50.400,126.800 50.400 C 126.140 50.400,125.600 50.580,125.600 50.800 C 125.600 51.020,125.327 51.200,124.994 51.200 C 124.203 51.200,118.400 57.003,118.400 57.794 C 118.400 58.127,118.265 58.401,118.100 58.403 C 117.699 58.407,116.800 60.381,116.800 61.256 C 116.800 61.639,116.620 62.064,116.400 62.200 C 116.175 62.339,116.000 64.271,116.000 66.624 C 116.000 69.141,116.159 70.800,116.400 70.800 C 116.620 70.800,116.800 71.430,116.800 72.200 C 116.800 72.970,116.980 73.600,117.200 73.600 C 117.420 73.600,117.600 73.920,117.600 74.312 C 117.600 74.703,117.960 75.283,118.400 75.600 C 118.840 75.917,119.200 76.412,119.200 76.699 C 119.200 77.378,122.622 80.800,123.301 80.800 C 123.588 80.800,124.083 81.160,124.400 81.600 C 124.717 82.040,125.297 82.400,125.688 82.400 C 126.080 82.400,126.400 82.580,126.400 82.800 C 126.400 83.020,127.030 83.200,127.800 83.200 C 128.570 83.200,129.200 83.380,129.200 83.600 C 129.200 83.865,158.133 84.000,215.200 84.000 C 272.267 84.000,301.200 84.135,301.200 84.400 C 301.200 84.620,301.740 84.800,302.400 84.800 C 303.060 84.800,303.600 84.980,303.600 85.200 C 303.600 85.420,303.960 85.600,304.400 85.600 C 304.840 85.600,305.200 85.780,305.200 86.000 C 305.200 86.220,305.491 86.400,305.846 86.400 C 306.597 86.400,311.200 91.113,311.200 91.881 C 311.200 92.167,311.335 92.401,311.500 92.403 C 311.859 92.407,312.800 94.344,312.800 95.080 C 312.800 95.366,312.980 95.600,313.200 95.600 C 313.465 95.600,313.600 119.333,313.600 166.000 C 313.600 212.667,313.735 236.400,314.000 236.400 C 314.220 236.400,314.400 237.199,314.400 238.176 C 314.400 239.153,314.580 240.064,314.800 240.200 C 315.020 240.336,315.200 240.847,315.200 241.335 C 315.200 241.824,315.560 242.483,316.000 242.800 C 316.440 243.117,316.800 243.610,316.800 243.896 C 316.800 244.624,321.853 249.600,322.593 249.600 C 322.927 249.600,323.200 249.780,323.200 250.000 C 323.200 250.220,323.560 250.400,324.000 250.400 C 324.440 250.400,324.800 250.580,324.800 250.800 C 324.800 251.020,325.239 251.200,325.776 251.200 C 326.313 251.200,326.864 251.380,327.000 251.600 C 327.139 251.825,329.071 252.000,331.424 252.000 C 333.941 252.000,335.600 251.841,335.600 251.600 C 335.600 251.380,336.140 251.200,336.800 251.200 C 337.460 251.200,338.000 251.020,338.000 250.800 C 338.000 250.580,338.360 250.400,338.800 250.400 C 339.240 250.400,339.600 250.220,339.600 250.000 C 339.600 249.780,339.960 249.600,340.400 249.600 C 340.840 249.600,341.200 249.423,341.200 249.207 C 341.200 248.991,342.370 247.645,343.800 246.215 C 345.230 244.785,346.400 243.381,346.400 243.096 C 346.400 242.810,346.760 242.317,347.200 242.000 C 347.786 241.578,348.000 240.965,348.000 239.712 C 348.000 238.770,348.180 238.000,348.400 238.000 C 348.954 238.000,348.954 78.943,348.400 78.600 C 348.180 78.464,348.000 77.553,348.000 76.576 C 348.000 75.599,347.820 74.800,347.600 74.800 C 347.380 74.800,347.200 74.181,347.200 73.424 C 347.200 72.667,347.020 71.936,346.800 71.800 C 346.580 71.664,346.400 71.203,346.400 70.776 C 346.400 70.349,346.220 70.000,346.000 70.000 C 345.780 70.000,345.600 69.640,345.600 69.200 C 345.600 68.760,345.420 68.400,345.200 68.400 C 344.980 68.400,344.800 68.040,344.800 67.600 C 344.800 67.160,344.620 66.800,344.400 66.800 C 344.180 66.800,344.000 66.440,344.000 66.000 C 344.000 65.560,343.820 65.200,343.600 65.200 C 343.380 65.200,343.200 64.935,343.200 64.611 C 343.200 64.027,340.693 61.056,338.837 59.439 C 338.307 58.977,337.097 57.835,336.148 56.900 C 335.198 55.965,334.146 55.200,333.811 55.200 C 333.475 55.200,333.200 55.020,333.200 54.800 C 333.200 54.580,332.880 54.400,332.488 54.400 C 332.097 54.400,331.517 54.040,331.200 53.600 C 330.883 53.160,330.303 52.800,329.912 52.800 C 329.520 52.800,329.200 52.620,329.200 52.400 C 329.200 52.180,328.840 52.000,328.400 52.000 C 327.960 52.000,327.600 51.820,327.600 51.600 C 327.600 51.380,326.981 51.200,326.224 51.200 C 325.467 51.200,324.736 51.020,324.600 50.800 C 324.464 50.580,323.913 50.400,323.376 50.400 C 322.839 50.400,322.400 50.220,322.400 50.000 C 322.400 49.734,289.733 49.600,225.200 49.600 C 160.667 49.600,128.000 49.734,128.000 50.000 M184.200 145.200 C 184.064 145.420,183.063 145.600,181.976 145.600 C 180.889 145.600,180.000 145.780,180.000 146.000 C 180.000 146.220,179.640 146.400,179.200 146.400 C 178.760 146.400,178.400 146.580,178.400 146.800 C 178.400 147.020,178.040 147.200,177.600 147.200 C 177.160 147.200,176.800 147.380,176.800 147.600 C 176.800 147.820,176.617 148.000,176.394 148.000 C 175.745 148.000,169.200 154.727,169.200 155.394 C 169.200 155.727,169.020 156.000,168.800 156.000 C 168.580 156.000,168.400 156.360,168.400 156.800 C 168.400 157.240,168.220 157.600,168.000 157.600 C 167.780 157.600,167.600 157.960,167.600 158.400 C 167.600 158.840,167.420 159.200,167.200 159.200 C 166.980 159.200,166.800 159.650,166.800 160.200 C 166.800 160.750,166.620 161.200,166.400 161.200 C 166.180 161.200,166.000 161.740,166.000 162.400 C 166.000 163.060,165.820 163.600,165.600 163.600 C 165.380 163.600,165.200 163.960,165.200 164.400 C 165.200 164.840,165.020 165.200,164.800 165.200 C 164.580 165.200,164.400 165.740,164.400 166.400 C 164.400 167.060,164.220 167.600,164.000 167.600 C 163.780 167.600,163.600 167.949,163.600 168.376 C 163.600 168.803,163.420 169.264,163.200 169.400 C 162.980 169.536,162.800 170.087,162.800 170.624 C 162.800 171.161,162.620 171.600,162.400 171.600 C 162.180 171.600,162.000 172.140,162.000 172.800 C 162.000 173.460,161.820 174.000,161.600 174.000 C 161.380 174.000,161.200 174.360,161.200 174.800 C 161.200 175.240,161.020 175.600,160.800 175.600 C 160.580 175.600,160.400 176.039,160.400 176.576 C 160.400 177.113,160.220 177.664,160.000 177.800 C 159.780 177.936,159.600 178.376,159.600 178.778 C 159.600 179.180,159.331 180.024,159.002 180.654 C 158.674 181.284,158.404 182.295,158.402 182.900 C 158.401 183.505,158.220 184.000,158.000 184.000 C 157.780 184.000,157.600 184.360,157.600 184.800 C 157.600 185.240,157.420 185.600,157.200 185.600 C 156.980 185.600,156.800 186.140,156.800 186.800 C 156.800 187.460,156.620 188.000,156.400 188.000 C 156.180 188.000,156.000 188.540,156.000 189.200 C 156.000 189.860,155.820 190.400,155.600 190.400 C 155.380 190.400,155.200 190.760,155.200 191.200 C 155.200 191.640,155.020 192.000,154.800 192.000 C 154.580 192.000,154.400 192.450,154.400 193.000 C 154.400 193.550,154.220 194.000,154.000 194.000 C 153.780 194.000,153.600 194.540,153.600 195.200 C 153.600 195.860,153.420 196.400,153.200 196.400 C 152.980 196.400,152.800 196.760,152.800 197.200 C 152.800 197.640,152.620 198.000,152.400 198.000 C 152.180 198.000,152.000 198.540,152.000 199.200 C 152.000 199.860,151.820 200.400,151.600 200.400 C 151.380 200.400,151.200 200.760,151.200 201.200 C 151.200 201.640,151.020 202.000,150.800 202.000 C 150.580 202.000,150.400 202.540,150.400 203.200 C 150.400 203.860,150.220 204.400,150.000 204.400 C 149.780 204.400,149.600 204.940,149.600 205.600 C 149.600 206.260,149.420 206.800,149.200 206.800 C 148.980 206.800,148.800 207.160,148.800 207.600 C 148.800 208.040,148.620 208.400,148.400 208.400 C 148.180 208.400,148.000 208.850,148.000 209.400 C 148.000 209.950,147.820 210.400,147.600 210.400 C 147.380 210.400,147.200 210.940,147.200 211.600 C 147.200 212.260,147.020 212.800,146.800 212.800 C 146.580 212.800,146.400 213.160,146.400 213.600 C 146.400 214.040,146.220 214.400,146.000 214.400 C 145.780 214.400,145.600 214.940,145.600 215.600 C 145.600 216.260,145.420 216.800,145.200 216.800 C 144.980 216.800,144.800 217.149,144.800 217.576 C 144.800 218.003,144.620 218.464,144.400 218.600 C 144.180 218.736,144.000 219.287,144.000 219.824 C 144.000 220.361,143.820 220.800,143.600 220.800 C 143.380 220.800,143.200 221.340,143.200 222.000 C 143.200 222.660,143.036 223.200,142.835 223.200 C 142.634 223.200,142.349 223.919,142.200 224.798 C 142.052 225.677,141.766 226.497,141.565 226.622 C 141.364 226.746,141.200 227.287,141.200 227.824 C 141.200 228.361,141.020 228.800,140.800 228.800 C 140.580 228.800,140.400 229.250,140.400 229.800 C 140.400 230.350,140.220 230.800,140.000 230.800 C 139.780 230.800,139.600 231.340,139.600 232.000 C 139.600 232.660,139.420 233.200,139.200 233.200 C 138.980 233.200,138.800 233.560,138.800 234.000 C 138.800 234.440,138.620 234.800,138.400 234.800 C 138.180 234.800,138.000 235.340,138.000 236.000 C 138.000 236.660,137.820 237.200,137.600 237.200 C 137.380 237.200,137.200 237.740,137.200 238.400 C 137.200 239.060,137.020 239.600,136.800 239.600 C 136.580 239.600,136.400 239.960,136.400 240.400 C 136.400 240.840,136.220 241.200,136.000 241.200 C 135.780 241.200,135.600 241.650,135.600 242.200 C 135.600 242.750,135.420 243.200,135.200 243.200 C 134.980 243.200,134.800 243.650,134.800 244.200 C 134.800 244.750,134.620 245.200,134.400 245.200 C 134.180 245.200,134.000 245.650,134.000 246.200 C 134.000 246.750,133.820 247.200,133.600 247.200 C 133.380 247.200,133.200 247.740,133.200 248.400 C 133.200 249.060,133.020 249.600,132.800 249.600 C 132.580 249.600,132.400 249.960,132.400 250.400 C 132.400 250.840,132.220 251.200,132.000 251.200 C 131.780 251.200,131.600 251.740,131.600 252.400 C 131.600 253.060,131.420 253.600,131.200 253.600 C 130.980 253.600,130.800 254.140,130.800 254.800 C 130.800 255.460,130.620 256.000,130.400 256.000 C 130.180 256.000,130.000 256.360,130.000 256.800 C 130.000 257.240,129.820 257.600,129.600 257.600 C 129.380 257.600,129.200 258.039,129.200 258.576 C 129.200 259.113,129.020 259.664,128.800 259.800 C 128.577 259.938,128.400 261.796,128.400 264.000 C 128.400 266.204,128.577 268.062,128.800 268.200 C 129.020 268.336,129.200 268.937,129.200 269.535 C 129.200 270.165,129.537 270.867,130.000 271.200 C 130.440 271.517,130.800 272.025,130.800 272.328 C 130.800 272.810,131.594 273.657,133.775 275.500 C 134.100 275.775,134.604 276.000,134.895 276.000 C 135.186 276.000,135.683 276.360,136.000 276.800 C 136.402 277.357,137.035 277.600,138.088 277.600 C 138.920 277.600,139.600 277.780,139.600 278.000 C 139.600 278.228,140.792 278.400,142.376 278.400 C 143.903 278.400,145.264 278.220,145.400 278.000 C 145.536 277.780,146.177 277.600,146.824 277.600 C 147.471 277.600,148.000 277.420,148.000 277.200 C 148.000 276.980,148.278 276.800,148.618 276.800 C 148.958 276.800,149.686 276.350,150.236 275.800 C 150.786 275.250,151.381 274.800,151.557 274.800 C 152.075 274.800,153.600 273.347,153.600 272.853 C 153.600 272.604,153.780 272.400,154.000 272.400 C 154.220 272.400,154.400 272.040,154.400 271.600 C 154.400 271.160,154.580 270.800,154.800 270.800 C 155.020 270.800,155.200 270.440,155.200 270.000 C 155.200 269.560,155.380 269.200,155.600 269.200 C 155.820 269.200,156.000 268.851,156.000 268.424 C 156.000 267.997,156.180 267.536,156.400 267.400 C 156.620 267.264,156.800 266.713,156.800 266.176 C 156.800 265.639,156.980 265.200,157.200 265.200 C 157.420 265.200,157.600 264.951,157.600 264.646 C 157.600 264.341,157.869 263.576,158.198 262.946 C 158.526 262.316,158.796 261.305,158.798 260.700 C 158.799 260.095,158.980 259.600,159.200 259.600 C 159.420 259.600,159.600 259.240,159.600 258.800 C 159.600 258.360,159.780 258.000,160.000 258.000 C 160.220 258.000,160.400 257.550,160.400 257.000 C 160.400 256.450,160.580 256.000,160.800 256.000 C 161.020 256.000,161.200 255.640,161.200 255.200 C 161.200 254.760,161.380 254.400,161.600 254.400 C 161.820 254.400,162.000 253.860,162.000 253.200 C 162.000 252.540,162.180 252.000,162.400 252.000 C 162.620 252.000,162.800 251.640,162.800 251.200 C 162.800 250.760,162.980 250.400,163.200 250.400 C 163.420 250.400,163.600 249.860,163.600 249.200 C 163.600 248.540,163.780 248.000,164.000 248.000 C 164.220 248.000,164.400 247.640,164.400 247.200 C 164.400 246.760,164.580 246.400,164.800 246.400 C 165.020 246.400,165.200 246.117,165.200 245.771 C 165.200 243.997,165.164 244.000,187.471 244.003 L 208.600 244.006 209.100 245.083 C 209.375 245.675,209.600 246.394,209.600 246.680 C 209.600 246.966,209.780 247.200,210.000 247.200 C 210.220 247.200,210.400 247.740,210.400 248.400 C 210.400 249.060,210.580 249.600,210.800 249.600 C 211.020 249.600,211.200 249.960,211.200 250.400 C 211.200 250.840,211.380 251.200,211.600 251.200 C 211.820 251.200,212.000 251.740,212.000 252.400 C 212.000 253.060,212.180 253.600,212.400 253.600 C 212.620 253.600,212.800 253.960,212.800 254.400 C 212.800 254.840,212.980 255.200,213.200 255.200 C 213.420 255.200,213.600 255.524,213.600 255.920 C 213.600 256.814,214.494 258.793,214.900 258.797 C 215.065 258.799,215.200 259.340,215.200 260.000 C 215.200 260.660,215.380 261.200,215.600 261.200 C 215.820 261.200,216.000 261.560,216.000 262.000 C 216.000 262.440,216.180 262.800,216.400 262.800 C 216.620 262.800,216.800 263.340,216.800 264.000 C 216.800 264.660,216.980 265.200,217.200 265.200 C 217.420 265.200,217.600 265.560,217.600 266.000 C 217.600 266.440,217.780 266.800,218.000 266.800 C 218.220 266.800,218.400 267.340,218.400 268.000 C 218.400 268.660,218.580 269.200,218.800 269.200 C 219.020 269.200,219.200 269.560,219.200 270.000 C 219.200 270.440,219.380 270.800,219.600 270.800 C 219.820 270.800,220.000 271.084,220.000 271.431 C 220.000 271.988,220.748 272.785,224.286 275.996 C 224.773 276.438,225.448 276.800,225.786 276.800 C 226.124 276.800,226.400 276.980,226.400 277.200 C 226.400 277.420,227.030 277.600,227.800 277.600 C 228.570 277.600,229.200 277.780,229.200 278.000 C 229.200 278.233,230.533 278.400,232.400 278.400 C 234.267 278.400,235.600 278.233,235.600 278.000 C 235.600 277.780,236.140 277.600,236.800 277.600 C 237.460 277.600,238.000 277.420,238.000 277.200 C 238.000 276.980,238.279 276.800,238.620 276.800 C 239.421 276.800,244.000 272.215,244.000 271.412 C 244.000 271.076,244.180 270.800,244.400 270.800 C 244.620 270.800,244.800 270.440,244.800 270.000 C 244.800 269.560,244.980 269.200,245.200 269.200 C 245.420 269.200,245.600 268.480,245.600 267.600 C 245.600 266.720,245.780 266.000,246.000 266.000 C 246.222 266.000,246.400 264.933,246.400 263.600 C 246.400 262.267,246.222 261.200,246.000 261.200 C 245.780 261.200,245.600 260.570,245.600 259.800 C 245.600 259.030,245.420 258.400,245.200 258.400 C 244.980 258.400,244.800 258.040,244.800 257.600 C 244.800 257.160,244.620 256.800,244.400 256.800 C 244.180 256.800,244.000 256.260,244.000 255.600 C 244.000 254.940,243.820 254.400,243.600 254.400 C 243.380 254.400,243.200 253.860,243.200 253.200 C 243.200 252.540,243.020 252.000,242.800 252.000 C 242.580 252.000,242.400 251.640,242.400 251.200 C 242.400 250.760,242.220 250.400,242.000 250.400 C 241.780 250.400,241.599 249.905,241.598 249.300 C 241.596 248.695,241.326 247.684,240.998 247.054 C 240.669 246.424,240.400 245.580,240.400 245.178 C 240.400 244.776,240.220 244.336,240.000 244.200 C 239.780 244.064,239.600 243.513,239.600 242.976 C 239.600 242.439,239.420 242.000,239.200 242.000 C 238.980 242.000,238.800 241.640,238.800 241.200 C 238.800 240.760,238.620 240.400,238.400 240.400 C 238.180 240.400,238.000 239.860,238.000 239.200 C 238.000 238.540,237.853 238.000,237.672 238.000 C 237.492 238.000,237.100 237.100,236.800 236.000 C 236.500 234.900,236.108 234.000,235.928 234.000 C 235.747 234.000,235.600 233.460,235.600 232.800 C 235.600 232.140,235.420 231.600,235.200 231.600 C 234.980 231.600,234.800 231.240,234.800 230.800 C 234.800 230.360,234.620 230.000,234.400 230.000 C 234.180 230.000,234.000 229.460,234.000 228.800 C 234.000 228.140,233.820 227.600,233.600 227.600 C 233.380 227.600,233.200 227.150,233.200 226.600 C 233.200 226.050,233.020 225.600,232.800 225.600 C 232.580 225.600,232.400 225.240,232.400 224.800 C 232.400 224.360,232.220 224.000,232.000 224.000 C 231.780 224.000,231.600 223.460,231.600 222.800 C 231.600 222.140,231.420 221.600,231.200 221.600 C 230.980 221.600,230.800 221.240,230.800 220.800 C 230.800 220.360,230.620 220.000,230.400 220.000 C 230.180 220.000,230.000 219.460,230.000 218.800 C 230.000 218.140,229.820 217.600,229.600 217.600 C 229.380 217.600,229.200 217.060,229.200 216.400 C 229.200 215.740,229.020 215.200,228.800 215.200 C 228.580 215.200,228.400 214.840,228.400 214.400 C 228.400 213.960,228.220 213.600,228.000 213.600 C 227.780 213.600,227.600 213.060,227.600 212.400 C 227.600 211.740,227.420 211.200,227.200 211.200 C 226.980 211.200,226.800 210.750,226.800 210.200 C 226.800 209.650,226.620 209.200,226.400 209.200 C 226.180 209.200,226.000 208.840,226.000 208.400 C 226.000 207.960,225.843 207.600,225.652 207.600 C 225.460 207.600,225.184 206.700,225.038 205.600 C 224.892 204.500,224.599 203.600,224.386 203.600 C 224.174 203.600,224.000 203.161,224.000 202.624 C 224.000 202.087,223.820 201.536,223.600 201.400 C 223.380 201.264,223.200 200.724,223.200 200.200 C 223.200 199.676,223.020 199.136,222.800 199.000 C 222.580 198.864,222.400 198.403,222.400 197.976 C 222.400 197.549,222.220 197.200,222.000 197.200 C 221.780 197.200,221.600 196.761,221.600 196.224 C 221.600 195.687,221.420 195.136,221.200 195.000 C 220.980 194.864,220.800 194.403,220.800 193.976 C 220.800 193.549,220.620 193.200,220.400 193.200 C 220.180 193.200,220.000 192.750,220.000 192.200 C 220.000 191.650,219.820 191.200,219.600 191.200 C 219.380 191.200,219.200 190.660,219.200 190.000 C 219.200 189.340,219.020 188.800,218.800 188.800 C 218.580 188.800,218.400 188.440,218.400 188.000 C 218.400 187.560,218.220 187.200,218.000 187.200 C 217.780 187.200,217.600 186.660,217.600 186.000 C 217.600 185.340,217.420 184.800,217.200 184.800 C 216.980 184.800,216.800 184.361,216.800 183.824 C 216.800 183.287,216.620 182.736,216.400 182.600 C 216.180 182.464,216.000 182.003,216.000 181.576 C 216.000 181.149,215.820 180.800,215.600 180.800 C 215.380 180.800,215.200 180.260,215.200 179.600 C 215.200 178.940,215.020 178.400,214.800 178.400 C 214.580 178.400,214.400 178.040,214.400 177.600 C 214.400 177.160,214.220 176.800,214.000 176.800 C 213.780 176.800,213.600 176.350,213.600 175.800 C 213.600 175.250,213.420 174.800,213.200 174.800 C 212.980 174.800,212.800 174.260,212.800 173.600 C 212.800 172.940,212.620 172.400,212.400 172.400 C 212.180 172.400,212.000 172.040,212.000 171.600 C 212.000 171.160,211.820 170.800,211.600 170.800 C 211.380 170.800,211.200 170.260,211.200 169.600 C 211.200 168.940,211.020 168.400,210.800 168.400 C 210.580 168.400,210.400 167.961,210.400 167.424 C 210.400 166.887,210.220 166.336,210.000 166.200 C 209.780 166.064,209.600 165.603,209.600 165.176 C 209.600 164.749,209.420 164.400,209.200 164.400 C 208.980 164.400,208.799 163.905,208.798 163.300 C 208.796 162.695,208.526 161.684,208.198 161.054 C 207.869 160.424,207.600 159.569,207.600 159.154 C 207.600 158.739,207.420 158.400,207.200 158.400 C 206.980 158.400,206.800 158.040,206.800 157.600 C 206.800 157.160,206.620 156.800,206.400 156.800 C 206.180 156.800,206.000 156.480,206.000 156.088 C 206.000 155.697,205.640 155.117,205.200 154.800 C 204.760 154.483,204.400 153.989,204.400 153.703 C 204.400 153.417,203.414 152.197,202.209 150.991 C 201.003 149.786,199.783 148.800,199.497 148.800 C 199.211 148.800,198.717 148.440,198.400 148.000 C 198.061 147.530,197.365 147.200,196.712 147.200 C 196.100 147.200,195.600 147.020,195.600 146.800 C 195.600 146.580,195.240 146.400,194.800 146.400 C 194.360 146.400,194.000 146.220,194.000 146.000 C 194.000 145.780,193.100 145.600,192.000 145.600 C 190.900 145.600,190.000 145.420,190.000 145.200 C 190.000 144.972,188.808 144.800,187.224 144.800 C 185.697 144.800,184.336 144.980,184.200 145.200 M188.000 186.000 C 188.000 186.660,188.180 187.200,188.400 187.200 C 188.620 187.200,188.800 187.740,188.800 188.400 C 188.800 189.060,188.980 189.600,189.200 189.600 C 189.420 189.600,189.600 190.050,189.600 190.600 C 189.600 191.150,189.780 191.600,190.000 191.600 C 190.220 191.600,190.400 192.140,190.400 192.800 C 190.400 193.460,190.540 194.000,190.711 194.000 C 191.051 194.000,192.400 198.232,192.400 199.296 C 192.400 199.657,192.580 200.064,192.800 200.200 C 193.020 200.336,193.200 200.799,193.200 201.229 C 193.200 201.659,193.359 202.323,193.553 202.705 C 193.748 203.087,194.129 203.940,194.400 204.600 C 194.671 205.260,195.052 206.113,195.247 206.495 C 195.441 206.877,195.600 207.552,195.600 207.995 C 195.600 208.438,195.780 208.800,196.000 208.800 C 196.220 208.800,196.400 209.340,196.400 210.000 C 196.400 210.660,196.580 211.200,196.800 211.200 C 197.020 211.200,197.200 211.740,197.200 212.400 C 197.200 213.060,197.380 213.600,197.600 213.600 C 197.820 213.600,198.000 214.039,198.000 214.576 C 198.000 215.113,198.180 215.664,198.400 215.800 C 198.620 215.936,198.800 216.397,198.800 216.824 C 198.800 217.251,198.980 217.600,199.200 217.600 C 199.420 217.600,199.600 217.780,199.600 218.000 C 199.600 218.258,195.267 218.400,187.400 218.400 C 179.533 218.400,175.200 218.258,175.200 218.000 C 175.200 217.780,175.380 217.600,175.600 217.600 C 175.820 217.600,176.000 217.060,176.000 216.400 C 176.000 215.740,176.180 215.200,176.400 215.200 C 176.620 215.200,176.800 214.660,176.800 214.000 C 176.800 213.340,176.980 212.800,177.200 212.800 C 177.420 212.800,177.600 212.260,177.600 211.600 C 177.600 210.940,177.780 210.400,178.000 210.400 C 178.220 210.400,178.400 210.040,178.400 209.600 C 178.400 209.160,178.580 208.800,178.800 208.800 C 179.020 208.800,179.200 208.350,179.200 207.800 C 179.200 207.250,179.380 206.800,179.600 206.800 C 179.820 206.800,180.000 206.260,180.000 205.600 C 180.000 204.940,180.180 204.400,180.400 204.400 C 180.620 204.400,180.800 203.860,180.800 203.200 C 180.800 202.540,180.980 202.000,181.200 202.000 C 181.420 202.000,181.600 201.640,181.600 201.200 C 181.600 200.760,181.780 200.400,182.000 200.400 C 182.220 200.400,182.400 199.860,182.400 199.200 C 182.400 198.540,182.580 198.000,182.800 198.000 C 183.020 198.000,183.200 197.460,183.200 196.800 C 183.200 196.140,183.380 195.600,183.600 195.600 C 183.820 195.600,184.000 195.060,184.000 194.400 C 184.000 193.740,184.180 193.200,184.400 193.200 C 184.620 193.200,184.800 192.840,184.800 192.400 C 184.800 191.960,184.980 191.600,185.200 191.600 C 185.420 191.600,185.600 191.161,185.600 190.624 C 185.600 190.087,185.780 189.536,186.000 189.400 C 186.220 189.264,186.400 188.713,186.400 188.176 C 186.400 187.639,186.580 187.200,186.800 187.200 C 187.020 187.200,187.200 186.660,187.200 186.000 C 187.200 185.340,187.380 184.800,187.600 184.800 C 187.820 184.800,188.000 185.340,188.000 186.000 " stroke="none" fill="#3b7be4" fill-rule="evenodd"></path><path id="path2" d="" stroke="none" fill="#a8d8e0" fill-rule="evenodd"></path><path id="path3" d="" stroke="none" fill="#a8d8e0" fill-rule="evenodd"></path><path id="path4" d="" stroke="none" fill="#a8d8e0" fill-rule="evenodd"></path></g></svg>